<svg id="Layer_1" data-name="Layer 1" xmlns="http://www.w3.org/2000/svg" viewBox="0 0 512 512"><title>cloud-cd-note-flat</title><g id="cloud-cd-note"><path d="M391.65,142.38c-7.88,0-17.59,3.17-26.16,6-1.75.57-3.41,1.12-5,1.62-20.88-54.34-67.06-89.19-118.78-89.19A132.94,132.94,0,0,0,109.33,181.09c-2.9-.26-5.53-.39-8.1-.39a101.22,101.22,0,1,0,0,202.43h50.47l-3.73-7.3a113.62,113.62,0,0,1-7.73-19.23L139.2,353h-38a71.1,71.1,0,1,1,0-142.2,72,72,0,0,1,9.43.73l26.86,3.55L139,188A102.83,102.83,0,0,1,241.69,90.89c48.82,0,80.1,39.61,92,73.53l7.69,21.78,22.35-5.84c3.39-.88,7-2,11.1-3.39,4.43-1.45,13.69-4.47,16.8-4.47A90.26,90.26,0,0,1,418.22,349l-2.84.88-.59,2.92a81.06,81.06,0,0,1-7.35,21.11l-4.63,9,10-1.77a120.32,120.32,0,0,0-21.12-238.78Z" fill="#90c8ea"/><path d="M323.63,388.34c.41-.47.82-1,1.22-1.45l-1.22-.14Z" fill="#90c8ea"/><path d="M324.75,386.2V303.38l-39.55,12a36.36,36.36,0,0,0-3.45-8.86l43-27.2V260.91A98.61,98.61,0,1,0,249.24,423a101.88,101.88,0,0,0,17.06-1.49,27,27,0,0,1,3.16-9.49c5.51-10.16,17.61-18.84,32.35-23.2A64.26,64.26,0,0,1,324.75,386.2Zm-75.41-87a24.65,24.65,0,1,1-24.67,24.65A24.64,24.64,0,0,1,249.33,299.24ZM191,264.56a82.62,82.62,0,0,1,39.16-21.9l11.59,44.73a36.88,36.88,0,0,0-18.06,9.84,34.38,34.38,0,0,0-4,4.86L182.29,275A85.89,85.89,0,0,1,191,264.56Zm5.86,123.88a82.24,82.24,0,0,1-10.41-10.33A83.49,83.49,0,0,1,173.67,358c-.43-.94-1-1.82-1.35-2.78l42.8-17.39a37.17,37.17,0,0,0,11.25,14.82L222,358c-5.41,6.68-11,13.55-16.47,20.08C202.59,381.71,199.65,385.22,196.9,388.44Z" fill="#90c8ea"/><path d="M399.92,318.07c-6.88-36.55-35.84-52.31-52.25-58.43,0,0-.22-1.23-.51-.2a74.66,74.66,0,0,0-10.94-3.24V399.69c-.12.1-.29.16-.41.26a34.86,34.86,0,0,0-4.29-1.69,38.25,38.25,0,0,0-6-1.33l-.76-.06a46.06,46.06,0,0,0-8.43-.24,53.25,53.25,0,0,0-12.14,2.25c-12.12,3.75-21.51,11.29-26,19.77-2.78,5.29-3.67,11-2,16.31,2.12,6.76,7.86,11.71,15.49,14.25,7.94,2.69,17.94,2.76,28-.33a45.12,45.12,0,0,0,17.71-10.41c6.2-5.92,10-13.08,10.69-19.39l.06,0h-.06a15.73,15.73,0,0,0,.06-3.59V316.87a42.16,42.16,0,0,1,5.78,2.1l.51.22a50.09,50.09,0,0,1,19.78,16.76A42,42,0,0,1,381.8,358l.06.39a60.56,60.56,0,0,1-2.31,19.49c0,.08,0,.13-.06.2a63.57,63.57,0,0,1-3.92,10.55,47.77,47.77,0,0,0,8.67-7.49c.82-.88,1.69-2,2.55-3.06a60.07,60.07,0,0,0,6.1-8.71A66.23,66.23,0,0,0,398,357.7C401.43,347.37,403,334.3,399.92,318.07Z" fill="#90c8ea"/></g></svg>